<?xml version="1.0" encoding="utf-8"?>
<!-- Generator: Adobe Illustrator 27.3.1, SVG Export Plug-In . SVG Version: 6.00 Build 0)  -->
<svg version="1.1" id="Capa_1" xmlns="http://www.w3.org/2000/svg" xmlns:xlink="http://www.w3.org/1999/xlink" x="0px" y="0px"
	 viewBox="0 0 1080 1080" style="enable-background:new 0 0 1080 1080;" xml:space="preserve">
<g>
	<path fill="currentColor" d="M754.09,176.02c-1.74,5.41-3.55,10.8-5.2,16.23c-11.23,37.12-20.57,74.97-34.41,111.09c-7.2,18.77-22.25,34.58-33.92,51.62
		c-32.36,47.25-79.62,73.2-132.17,91.51c-1.12,0.39-2.54,0.35-3.39,1.03c-19.85,15.98-37.72,12.66-53.48-7.87
		c-11.01,41.61-26.48,79.91-19.18,121.85c0.86,4.96,0.92,12.54-2.03,15.27c-14.26,13.22-12.83,30.18-11.99,46.47
		c0.37,7.23,6.03,14.13,8.96,21.32c2.73,6.7,7.88,14.2,6.58,20.18c-1.03,4.7-10.17,10.39-15.89,10.6
		c-6.4,0.23-17.47-3.94-18.77-8.43c-6.01-20.76-18.42-37.84-11.55-64.61c9.33-36.37,25.98-72.96,20.05-112.66
		c-0.53-3.55,2.83-10.78,5.17-11.14c14.26-2.17,11.63-12.36,11.83-21.57c0.31-14.59-2.32-29.3,9.09-42.27
		c3.7-4.21,2.14-13.72,1.7-20.72c-0.94-14.75,4.02-21.35,20.21-21.45c16.85-0.1,30.2,0.81,33.92,21.15
		c0.71,3.88,8.38,9.39,12.57,9.16c10.38-0.57,22.44-1.3,30.58-6.76c44.92-30.12,90.28-60.25,116.61-110.03
		c16.44-31.07,32.49-62.34,48.82-93.46c3.38-6.44,7.21-12.63,10.84-18.94C750.71,174.41,752.4,175.21,754.09,176.02z"/>
	<path fill="currentColor"  d="M449.36,786.87c-3.76,9.02-6.13,19-11.58,26.86c-9.56,13.78-27.65,17.87-39.13,10.78c-12.6-7.78-19.51-28.27-13.86-42.2
		c1.98-4.89,3.99-10.45,7.7-13.83c9.5-8.64,19.08-20.84,30.27-22.96C434.64,743.27,447.11,767.45,449.36,786.87z"/>
</g>
</svg>
