<?xml version="1.0" encoding="utf-8"?>
<!-- Generator: Adobe Illustrator 27.3.1, SVG Export Plug-In . SVG Version: 6.00 Build 0)  -->
<svg version="1.1" id="Capa_1" xmlns="http://www.w3.org/2000/svg" xmlns:xlink="http://www.w3.org/1999/xlink" x="0px" y="0px"
	 viewBox="0 0 1080 1080" style="enable-background:new 0 0 1080 1080;" xml:space="preserve">
<g>
	<path d="M506.27,447.31c0,31.13-0.42,62.28,0.36,93.39c0.15,6.17,3.79,16.34,7.77,17.4c6.28,1.68,15.88-0.76,21.09-5.07
		c10.26-8.48,18.57-19.35,27.52-29.37c33.88-37.91,68.09-75.53,101.33-113.99c12.95-14.99,22.47-32.98,35.7-47.66
		c15.97-17.72,33.13-34.86,52.15-49.1c6.06-4.53,21.58-2.05,29.4,2.72c10.78,6.58,9.29,19.04,1.81,29.11
		c-4.34,5.85-9.37,11.31-14.7,16.28c-55.64,51.85-111.69,103.21-157.44,164.59c-12.35,16.57-29.16,29.84-41.43,46.47
		c-9.83,13.32-18.27,27.56-27.02,41.59c-9.54,15.29-13.12,23.7-9.89,42.01c5.24,29.69,22.34,55.61,30,84.59
		c2.68,10.13,2.82,23.47-6.51,28.25c-1.25,0.64-2.65,1.07-4.04,0.92c-2.22-0.24-3.99-1.88-5.59-3.44
		c-10.84-10.53-21.67-21.07-32.51-31.6c-5.61-5.45-11.72-11.17-19.43-12.49c-6.19-1.06-12.46,0.91-18.44,2.86
		c-17.89,5.83-35.77,11.65-53.66,17.48c-4.27,1.39-9.4,2.64-12.89-0.19c-2.01-1.63-2.92-4.27-3.37-6.83
		c-2.02-11.35,2.98-22.71,8.69-32.73c9.67-16.97,21.64-32.44,32.38-48.71c5.64-8.54,11.01-17.29,15.43-26.53
		c5.44-11.37,4.92-17.23,3.26-29.49c-4.8-35.47-7.96-71.17-12.65-106.66c-1.42-10.73-4.27-20.19,7.82-27.1
		c2.76-1.58,4.45-8.86,3.39-12.6c-4.75-16.75-10.67-33.17-16.18-49.71c-7.07-21.23-12.73-23.14-31.94-10.92
		c-2.02,1.29-4.23,2.81-6.49,3.11c-28.13,3.63-56.41,6.31-84.38,10.86c-13.83,2.25-19.88-3.81-25.52-14.7
		c-18.15-35.05-11.69-47.85,28.5-50.83c35.87-2.66,71.52-4.41,106.57-14.7c15.14-4.45,32.61-1.11,49.02-1.13
		c16.73-0.03,21.91,10.03,21.85,24.96c-0.14,32.98-0.04,65.97-0.04,98.95C506.21,447.31,506.24,447.31,506.27,447.31z"/>
</g>
</svg>
